<?xml version="1.0" encoding="UTF-8" standalone="no"?>
<!-- Created by Symbolator http://kevinpt.github.io/symbolator -->
<svg xmlns="http://www.w3.org/2000/svg"
xmlns:xlink="http://www.w3.org/1999/xlink"
xml:space="preserve"
width="151" height="181" viewBox="-25 -40 151.0 181.0" version="1.1">
<style type="text/css">
<![CDATA[
.fnt1 {fill:#000000;
    font-family:Helvetica; font-size:12pt; font-weight:normal; font-style:normal;}
.label {fill:#000;
  text-anchor:middle;
  font-size:16pt; font-weight:bold; font-family:Sans;}
.link {fill: #0D47A1;}
.link:hover {fill: #0D47A1; text-decoration:underline;}
.link:visited {fill: #4A148C;}
]]>
</style>
<defs>
<marker id="clock" markerWidth="8.0" markerHeight="15.0" viewBox="0 0 8.0 15.0" refX="0.5" refY="7.5" orient="auto" markerUnits="userSpaceOnUse">
<g transform="translate(0.5,7.5)"><path d="M 0 -7 L 0 7 L 7 0 z" stroke="#000000" fill="#FFFFFF" stroke-width="1"/>
</g>
</marker>
<marker id="bubble" markerWidth="7.0" markerHeight="7.0" viewBox="0 0 7.0 7.0" refX="3.5" refY="3.5" orient="auto" markerUnits="userSpaceOnUse">
<g transform="translate(3.5,3.5)"><ellipse cx="0.0" cy="0.0" rx="3.0" ry="3.0" stroke="#000000" fill="#FFFFFF" stroke-width="1"/>
</g>
</marker>
</defs>
<rect x="-25" y="-40" width="100%" height="100%" fill="white"/><g transform="translate(0,0)">
<rect x="0" y="-15.0" width="100.0" height="130.0" stroke="#000000" fill="#C5DBFC" stroke-width="1"/>
<g transform="translate(0,0)">
<line x1="-20" y1="0" x2="0" y2="0" stroke="#000000" fill="none" stroke-width="1" marker-end="url(#clock)"/>
<text class="fnt1" x="10" y="0" text-anchor="normal" dy="-7.199999999999999">CLK</text>
</g>
<g transform="translate(0,20)">
<line x1="-20" y1="0" x2="0" y2="0" stroke="#000000" fill="none" stroke-width="1"/>
<text class="fnt1" x="10" y="0" text-anchor="normal" dy="-7.199999999999999">D</text>
</g>
<g transform="translate(0,40)">
<line x1="-20" y1="0" x2="-3.5" y2="0.0" stroke="#000000" fill="none" stroke-width="1" marker-end="url(#bubble)"/>
<text class="fnt1" x="10" y="0" text-anchor="normal" dy="-7.199999999999999">RESET_B</text>
</g>
<g transform="translate(0,60)">
<line x1="-20" y1="0" x2="0" y2="0" stroke="#000000" fill="none" stroke-width="1"/>
<text class="fnt1" x="10" y="0" text-anchor="normal" dy="-7.199999999999999">SCD</text>
</g>
<g transform="translate(0,80)">
<line x1="-20" y1="0" x2="0" y2="0" stroke="#000000" fill="none" stroke-width="1"/>
<text class="fnt1" x="10" y="0" text-anchor="normal" dy="-7.199999999999999">SCE</text>
</g>
<g transform="translate(0,100)">
<line x1="-20" y1="0" x2="-3.5" y2="0.0" stroke="#000000" fill="none" stroke-width="1" marker-end="url(#bubble)"/>
<text class="fnt1" x="10" y="0" text-anchor="normal" dy="-7.199999999999999">SET_B</text>
</g>
<g transform="translate(100.0,0)">
<line x1="20" y1="0" x2="0" y2="0" stroke="#000000" fill="none" stroke-width="1"/>
<text class="fnt1" x="-10" y="0" text-anchor="end" dy="-7.199999999999999">Q</text>
</g>
<g transform="translate(100.0,20)">
<line x1="20" y1="0" x2="3.5" y2="-4.286263797015736e-16" stroke="#000000" fill="none" stroke-width="1" marker-end="url(#bubble)"/>
<text class="fnt1" x="-10" y="0" text-anchor="end" dy="-7.199999999999999">Q_N</text>
</g>
<g transform="translate(33.333333333333336,-15.0)">
<line x1="0" y1="-20" x2="0" y2="0" stroke="#000000" fill="none" stroke-width="1"/>
<text class="fnt1" x="0" y="10" text-anchor="middle" dy="-4.0">VPWR</text>
</g>
<g transform="translate(66.66666666666667,-15.0)">
<line x1="0" y1="-20" x2="0" y2="0" stroke="#000000" fill="none" stroke-width="1"/>
<text class="fnt1" x="0" y="10" text-anchor="middle" dy="-4.0">VPB</text>
</g>
<g transform="translate(33.333333333333336,115.0)">
<line x1="0" y1="20" x2="0" y2="0" stroke="#000000" fill="none" stroke-width="1"/>
<text class="fnt1" x="0" y="-10" text-anchor="middle" dy="-10.399999999999999">VGND</text>
</g>
<g transform="translate(66.66666666666667,115.0)">
<line x1="0" y1="20" x2="0" y2="0" stroke="#000000" fill="none" stroke-width="1"/>
<text class="fnt1" x="0" y="-10" text-anchor="middle" dy="-10.399999999999999">VNB</text>
</g>
</g>
<rect x="1.0" y="-14.0" width="98.0" height="128.0" stroke="#000000" fill="none" stroke-width="3"/>
</svg>